<svg height="73" viewBox="0 0 73 73" width="73" xmlns="http://www.w3.org/2000/svg"><g fill="none"><rect fill="#fff" height="71" rx="14" stroke="#2a3b4d" stroke-width="2" width="71" x="1" y="1"/><g transform="translate(19 14)"><path d="m34.6195652 10.6521739-10.6521739-10.6521739h-23.58695652v44.1304348h34.23913042z" fill="#edeada"/><g fill="#cec9ae"><path d="m23.9673913 0v10.6521739h10.6521739z"/><g transform="translate(6.086957 10.652174)"><path d="m1.14130435 1.52173913h6.84782608c.42 0 .76086957-.3401087.76086957-.76086956 0-.42076087-.34086957-.76086957-.76086957-.76086957h-6.84782608c-.42 0-.76086957.3401087-.76086957.76086957 0 .42076086.34086957.76086956.76086957.76086956z"/><path d="m14.076087 16.7391304h-12.93478265c-.42 0-.76086957.3401087-.76086957.7608696s.34086957.7608696.76086957.7608696h12.93478265c.42 0 .7608695-.3401087.7608695-.7608696s-.3408695-.7608696-.7608695-.7608696z"/><path d="m21.6847826 11.4130435h-5.3260869c-.42 0-.7608696.3401087-.7608696.7608695 0 .4207609.3408696.7608696.7608696.7608696h5.3260869c.42 0 .7608696-.3401087.7608696-.7608696 0-.4207608-.3408696-.7608695-.7608696-.7608695z"/><path d="m1.14130435 7.60869565h3.80434782c.42 0 .76086957-.34010869.76086957-.76086956s-.34086957-.76086957-.76086957-.76086957h-3.80434782c-.42 0-.76086957.3401087-.76086957.76086957s.34086957.76086956.76086957.76086956z"/><path d="m12.5543478 7.60869565h5.326087c.42 0 .7608695-.34010869.7608695-.76086956s-.3408695-.76086957-.7608695-.76086957h-5.326087c-.42 0-.7608695.3401087-.7608695.76086957s.3408695.76086956.7608695.76086956z"/><path d="m7.98913043 6.84782609c0 .19782608.08369566.39565217.22065218.54021739.14456522.13695652.3423913.22065217.54021739.22065217s.39565217-.08369565.54021739-.22065217c.13695652-.14456522.22065218-.34239131.22065218-.54021739 0-.19858696-.08369566-.39641305-.22065218-.54021739-.28152174-.28152174-.79130435-.28152174-1.08043478 0-.13695652.14380434-.22065218.34163043-.22065218.54021739z"/><path d="m4.94565217 11.4130435c-.42 0-.76086956.3401087-.76086956.7608695 0 .4207609.34086956.7608696.76086956.7608696h7.60869563c.42 0 .7608696-.3401087.7608696-.7608696 0-.4207608-.3408696-.7608695-.7608696-.7608695z"/><path d="m1.14130435 12.9347826c.19782608 0 .39565217-.0836956.54021739-.2206522.13695652-.1445652.22065217-.3423913.22065217-.5402174 0-.1985869-.08369565-.396413-.22065217-.5402173-.28152174-.2815218-.79891304-.2815218-1.08043478 0-.13695652.1438043-.22065218.3340217-.22065218.5402173 0 .1978261.08369566.3956522.22065218.5402174.14456521.1369566.3423913.2206522.54021739.2206522z"/><path d="m21.6847826 22.0652174h-5.3260869c-.42 0-.7608696.3401087-.7608696.7608696 0 .4207608.3408696.7608695.7608696.7608695h5.3260869c.42 0 .7608696-.3401087.7608696-.7608695 0-.4207609-.3408696-.7608696-.7608696-.7608696z"/><path d="m12.5543478 22.0652174h-7.60869563c-.42 0-.76086956.3401087-.76086956.7608696 0 .4207608.34086956.7608695.76086956.7608695h7.60869563c.42 0 .7608696-.3401087.7608696-.7608695 0-.4207609-.3408696-.7608696-.7608696-.7608696z"/><path d="m.60108696 22.2858696c-.13695652.1369565-.22065218.3340217-.22065218.5402174 0 .2054347.07608696.3956521.22065218.5402173.14456521.1369566.3423913.2206522.54021739.2206522.20543478 0 .39565217-.0836956.54021739-.2206522.13695652-.1445652.22065217-.3423913.22065217-.5402173 0-.2061957-.08369565-.3964131-.22065217-.5326087-.28152174-.2891305-.79130435-.2891305-1.08043478-.0076087z"/><path d="m21.6847826 7.60869565c.1978261 0 .3956522-.08369565.5402174-.22065217.1445652-.14456522.2206522-.34239131.2206522-.54021739 0-.19858696-.076087-.39641305-.2206522-.54021739-.2891304-.28152174-.7913043-.28152174-1.0804348 0-.1369565.14380434-.2206522.34163043-.2206522.54021739 0 .19782608.0836957.39565217.2206522.54021739.1445652.13695652.3423913.22065217.5402174.22065217z"/><path d="m18.4206522 18.0402174c.1369565-.1445652.2206521-.3423913.2206521-.5402174 0-.198587-.0836956-.396413-.2206521-.5402174-.2891305-.2815217-.7989131-.2815217-1.0804348 0-.1369565.1438044-.2206522.3416304-.2206522.5402174 0 .1978261.0836957.3956522.2206522.5402174.1445652.1438043.3347826.2206522.5402174.2206522s.3956522-.0836957.5402174-.2206522z"/><path d="m21.1445652 16.9597826c-.1369565.1438044-.2206522.3416304-.2206522.5402174 0 .1978261.0836957.3956522.2206522.5402174.1445652.1369565.3347826.2206522.5402174.2206522s.3956522-.0836957.5402174-.2206522c.1369565-.1445652.2206522-.3423913.2206522-.5402174 0-.198587-.0836957-.396413-.2206522-.5402174-.2815217-.2815217-.798913-.2815217-1.0804348 0z"/></g></g></g></g></svg>